<svg xmlns="http://www.w3.org/2000/svg">
    <defs>
       <symbol id='audio'>
          <path fill="currentColor" d="M64 18.244c-0.474 0.285-1.581 1.148-2.462 1.918-1.944 1.7-5.731 4.975-10.831 9.366-2.099 1.807-4.48 3.865-5.292 4.574s-3.6 3.124-6.195 5.37l-4.718 4.082-28.262 0.139-0.891 0.611c-0.49 0.336-1.147 1.056-1.459 1.6l-0.567 0.989v35.446l0.616 1.1c0.376 0.671 1 1.317 1.6 1.658l0.984 0.557 27.429 0.008 0.932 0.8c0.512 0.44 0.987 0.856 1.055 0.924 0.13 0.132 6.748 5.84 7.989 6.891 0.4 0.338 1.231 1.065 1.846 1.615s2.725 2.376 4.688 4.060c1.963 1.683 3.625 3.117 3.693 3.186 0.13 0.132 1.69 1.484 6.521 5.653 4.016 3.466 5.63 3.967 7.875 2.447 2.023-1.37 1.85 2.983 1.85-46.481v-43.889l-0.551-0.98c-1.124-2-3.941-2.791-5.849-1.643zM102.625 18.777c-2.242 1.511-2.55 4.209-0.767 6.723 3.863 5.447 5.018 7.303 6.942 11.151 10.562 21.13 8.325 47.401-5.629 66.095-3.062 4.102-3.069 6.967-0.021 8.522 3.198 1.631 5.517-0.249 10.512-8.52 15.466-25.61 13.755-57.919-4.332-81.783-2.087-2.753-4.633-3.584-6.705-2.188zM91.454 30.1c-2.829 1.602-2.962 4.046-0.421 7.77 11.034 16.178 11.216 37.406 0.46 53.575-2.745 4.126-2.816 6.426-0.25 8.085 3.403 2.199 5.926 0.296 10.224-7.715 8.571-15.974 8.904-35.587 0.879-51.815-4.509-9.118-7.489-11.827-10.892-9.9zM79.272 42.289c-2.855 1.405-3.005 3.72-0.55 8.475 0.96 1.859 1.87 3.797 2.023 4.308 2.712 9.059 1.95 16.929-2.449 25.286-1.752 3.329-1.555 5.447 0.639 6.865 2.99 1.933 5.24 0.743 7.71-4.076 5.969-11.649 5.896-25.047-0.2-36.624-2.301-4.37-4.39-5.604-7.172-4.234z"></path>
      </symbol>
    </defs>
    <defs>
       <symbol id='arrow-prev'>
        <path fill="currentColor" d="M31.7 239l136-136c9.4-9.4 24.6-9.4 33.9 0l22.6 22.6c9.4 9.4 9.4 24.6 0 33.9L127.9 256l96.4 96.4c9.4 9.4 9.4 24.6 0 33.9L201.7 409c-9.4 9.4-24.6 9.4-33.9 0l-136-136c-9.5-9.4-9.5-24.6-.1-34z"></path>
      </symbol>
    </defs>
    <defs>
       <symbol id='double-arrow-prev'>
         <path fill="currentColor" d="M223.7 239l136-136c9.4-9.4 24.6-9.4 33.9 0l22.6 22.6c9.4 9.4 9.4 24.6 0 33.9L319.9 256l96.4 96.4c9.4 9.4 9.4 24.6 0 33.9L393.7 409c-9.4 9.4-24.6 9.4-33.9 0l-136-136c-9.5-9.4-9.5-24.6-.1-34zm-192 34l136 136c9.4 9.4 24.6 9.4 33.9 0l22.6-22.6c9.4-9.4 9.4-24.6 0-33.9L127.9 256l96.4-96.4c9.4-9.4 9.4-24.6 0-33.9L201.7 103c-9.4-9.4-24.6-9.4-33.9 0l-136 136c-9.5 9.4-9.5 24.6-.1 34z"></path>
      </symbol>
    </defs>
    <defs>
       <symbol id='arrow-next'>
         <path fill="currentColor" d="M224.3 273l-136 136c-9.4 9.4-24.6 9.4-33.9 0l-22.6-22.6c-9.4-9.4-9.4-24.6 0-33.9l96.4-96.4-96.4-96.4c-9.4-9.4-9.4-24.6 0-33.9L54.3 103c9.4-9.4 24.6-9.4 33.9 0l136 136c9.5 9.4 9.5 24.6.1 34z"></path>
      </symbol>
    </defs>
    <defs>
       <symbol id='double-arrow-next'>
         <path fill="currentColor" d="M224.3 273l-136 136c-9.4 9.4-24.6 9.4-33.9 0l-22.6-22.6c-9.4-9.4-9.4-24.6 0-33.9l96.4-96.4-96.4-96.4c-9.4-9.4-9.4-24.6 0-33.9L54.3 103c9.4-9.4 24.6-9.4 33.9 0l136 136c9.5 9.4 9.5 24.6.1 34zm192-34l-136-136c-9.4-9.4-24.6-9.4-33.9 0l-22.6 22.6c-9.4 9.4-9.4 24.6 0 33.9l96.4 96.4-96.4 96.4c-9.4 9.4-9.4 24.6 0 33.9l22.6 22.6c9.4 9.4 24.6 9.4 33.9 0l136-136c9.4-9.2 9.4-24.4 0-33.8z"></path>
      </symbol>
    </defs>
    <defs>
       <symbol id='textbook'>
        <g><g transform="translate(0.000000,511.000000) scale(0.100000,-0.100000)">
        <path fill="currentColor" d="M1184.5,3343.4c-222-25.5-308.8-66.3-344.5-163.3c-15.3-38.3-25.5-944.2-25.5-2309.4c0-2437-2.6-2401.3,135.2-2434.5c35.7-10.2,176.1-2.5,313.9,12.8c561.4,66.4,1092.2-33.2,2370.7-449.1c364.9-119.9,821.7-262.8,1013.1-319l352.2-102.1l275.6,81.7c150.6,43.4,589.5,181.2,974.8,306.2c1352.5,441.5,1906.2,548.6,2498.3,482.3c316.4-35.7,372.6-17.9,410.8,130.2c17.9,63.8,23,888,20.4,2357.9l-7.6,2263.5l-68.9,58.7c-91.9,79.1-270.5,102.1-773.2,99.5c-724.7-5.1-1179-109.7-2597.8-604.8l-732.4-255.2l-786,273c-865.1,298.6-1260.6,418.5-1663.8,497.6C2031.8,3371.5,1618.4,3394.4,1184.5,3343.4z M2588.1,2401.8c265.4-45.9,645.6-165.9,1237.6-385.3c564-211.8,574.2-216.9,574.2-285.8c0-135.3-48.5-132.7-472.1,23c-1127.9,418.5-1388.2,482.3-1913.9,467c-188.8-2.5-359.8,2.6-375.1,12.8c-45.9,28.1-40.8,107.2,5.1,145.5C1733.2,2452.8,2235.9,2465.6,2588.1,2401.8z M8334.8,2391.6c61.2-40.8,79.1-125,30.6-155.7c-17.9-10.2-232.2-20.4-479.8-23c-520.6-5.1-666-35.7-1337.2-283.3c-883-326.6-880.4-326.6-923.8-290.9c-23,20.4-38.3,63.8-33.2,99.5c7.6,58.7,43.4,79.1,364.9,199.1c860,324.1,1270.8,449.1,1671.5,502.7C7809.1,2463,8271.1,2432.4,8334.8,2391.6z M2779.4,1654.1c273.1-63.8,655.8-191.4,1288.7-431.3c326.6-122.5,357.3-140.4,364.9-201.6c5.1-48.5-7.7-76.6-43.4-97c-43.4-20.4-155.7,12.8-632.9,188.8c-816.6,301.1-1008,354.7-1421.4,398.1c-150.6,15.3-311.3,15.3-426.2,2.5c-117.4-15.3-204.1-15.3-232.2,0c-48.5,25.5-63.8,137.8-17.9,163.3C1786.8,1758.7,2389,1746,2779.4,1654.1z M8314.4,1692.4c66.3-35.7,71.4-145.5,7.7-178.6c-30.6-15.3-114.8-15.3-237.3,0c-444,56.1-882.9-40.8-1919-426.2c-410.9-153.1-515.5-183.7-556.3-160.8c-35.7,17.9-48.5,45.9-43.4,94.4c7.7,63.8,40.8,81.7,569.1,280.7c594.6,224.6,990.1,347.1,1311.7,403.2C7671.4,1743.4,8230.2,1735.7,8314.4,1692.4z M2590.6,988c125-23,341.9-74,482.3-114.8c293.5-86.8,1337.2-472.1,1372.9-507.8c12.8-12.8,17.9-53.6,7.7-89.3c-25.5-99.5-107.2-86.8-597.1,97C2840.7,755.8,2345.6,865.6,1911.8,801.8c-102.1-15.3-183.7-15.3-209.3,0c-51,25.5-61.2,135.2-15.3,163.3C1794.4,1031.4,2271.6,1041.6,2590.6,988z M8286.3,977.8c68.9-35.7,76.6-142.9,12.8-178.6c-28-12.8-104.6-12.8-199,2.6c-395.5,63.8-967.1-53.6-1850.1-385.3c-301.1-114.8-579.3-206.7-617.5-206.7c-53.6,0-74,15.3-86.8,63.8c-15.3,63.8,23,140.4,71.4,140.4c12.8,0,283.3,97,602.2,214.4c918.7,339.4,1184.1,400.6,1689.3,387.9C8095,1013.6,8250.6,995.7,8286.3,977.8z M2628.9,273.5c117.4-20.4,316.4-66.3,441.5-102.1c367.5-107.2,1378-490,1406.1-533.3c33.2-53.6-12.8-127.6-81.7-137.8c-30.6-5.1-316.4,89.3-640.5,209.3c-890.6,329.2-1247.9,408.3-1778.6,393l-280.7-7.6l-7.7,66.3c-12.8,119.9,51,140.4,469.5,148C2299.7,309.2,2511.5,293.9,2628.9,273.5z M8276.2,263.3c25.5-20.4,40.8-63.8,35.7-102.1l-7.7-66.3l-306.2,7.6c-528.2,15.3-867.6-61.2-1793.9-405.7c-301.1-112.3-569.1-201.6-599.7-196.5c-68.9,10.2-114.8,84.2-81.7,137.8C5550.8-321,6301-30.1,6757.8,117.9c232.2,74,474.6,135.3,717.1,178.6c35.7,5.1,219.5,10.2,410.8,7.7C8140.9,299,8245.5,288.8,8276.2,263.3z M2720.8-451.2c426.2-81.7,1725-541,1773.5-622.7c30.6-56.1-17.9-145.5-81.7-145.5c-25.5,0-293.5,91.9-592,201.6c-946.7,352.2-1270.8,426.2-1773.5,400.7c-290.9-12.8-313.9-10.2-339.4,33.2c-35.7,71.4-5.1,127.6,86.8,153.1C1939.9-387.4,2455.4-400.1,2720.8-451.2z M8191.9-428.2c99.6-28.1,135.3-89.3,94.4-160.8c-20.4-35.7-63.8-40.8-334.3-28.1c-502.7,25.5-826.8-48.5-1773.5-400.7c-298.6-109.7-566.5-201.6-592-201.6c-63.8,0-112.3,89.3-81.7,142.9c43.4,79.1,1314.2,533.3,1727.6,622.6C7490.2-400.1,8038.8-384.8,8191.9-428.2z"/>
        <path fill="currentColor" d="M153.6,2440C100,2371.2,100,2358.4,100,168.9v-2202.2l61.2-71.5c58.7-68.9,63.8-68.9,464.4-86.7c798.7-35.7,1347.4-155.7,2773.9-599.7c1577.1-490,1758.2-487.4,3452.7,68.9c1148.3,375.1,1668.9,489.9,2388.5,530.8c214.4,12.8,423.6,22.9,467,22.9c48.5,0,94.4,23,132.7,68.9l58.7,66.4V168.9c0,2587.6,33.2,2337.5-308.8,2337.5h-201.6L9383.7,493c-7.7-1998.1-7.7-2015.9-61.2-2087.4c-28.1-38.3-91.9-97-137.8-127.6c-79.1-56.1-97-56.1-546.1-43.4c-655.8,23-992.7-38.3-1949.6-352.2C6079-2314,5050.6-2622.8,4997-2622.8c-63.8,0-926.3,257.7-1579.6,472.1c-1046.3,342-1423.9,410.9-2079.8,385.3c-426.2-15.3-438.9-15.3-523.1,40.8c-45.9,33.2-109.7,91.9-137.8,130.1c-53.6,71.5-53.6,89.3-61.2,2087.4l-5.1,2013.4H408.8C219.9,2506.4,202.1,2501.3,153.6,2440z"/></g></g>
      </symbol>
    </defs>
    <defs>
       <symbol id='game-audio'>
          <path d="M3.75 11C3.75 10.5858 3.41421 10.25 3 10.25C2.58579 10.25 2.25 10.5858 2.25 11H3.75ZM2.25 13C2.25 13.4142 2.58579 13.75 3 13.75C3.41421 13.75 3.75 13.4142 3.75 13H2.25ZM6.75 8C6.75 7.58579 6.41421 7.25 6 7.25C5.58579 7.25 5.25 7.58579 5.25 8H6.75ZM5.25 16C5.25 16.4142 5.58579 16.75 6 16.75C6.41421 16.75 6.75 16.4142 6.75 16H5.25ZM9.75 10C9.75 9.58579 9.41421 9.25 9 9.25C8.58579 9.25 8.25 9.58579 8.25 10H9.75ZM8.25 14C8.25 14.4142 8.58579 14.75 9 14.75C9.41421 14.75 9.75 14.4142 9.75 14H8.25ZM12.75 7C12.75 6.58579 12.4142 6.25 12 6.25C11.5858 6.25 11.25 6.58579 11.25 7H12.75ZM11.25 17C11.25 17.4142 11.5858 17.75 12 17.75C12.4142 17.75 12.75 17.4142 12.75 17H11.25ZM15.75 4C15.75 3.58579 15.4142 3.25 15 3.25C14.5858 3.25 14.25 3.58579 14.25 4H15.75ZM14.25 20C14.25 20.4142 14.5858 20.75 15 20.75C15.4142 20.75 15.75 20.4142 15.75 20H14.25ZM18.75 9C18.75 8.58579 18.4142 8.25 18 8.25C17.5858 8.25 17.25 8.58579 17.25 9H18.75ZM17.25 15C17.25 15.4142 17.5858 15.75 18 15.75C18.4142 15.75 18.75 15.4142 18.75 15H17.25ZM21.75 11C21.75 10.5858 21.4142 10.25 21 10.25C20.5858 10.25 20.25 10.5858 20.25 11H21.75ZM20.25 13C20.25 13.4142 20.5858 13.75 21 13.75C21.4142 13.75 21.75 13.4142 21.75 13H20.25ZM2.25 11V13H3.75V11H2.25ZM5.25 8V16H6.75V8H5.25ZM8.25 10V14H9.75V10H8.25ZM11.25 7V17H12.75V7H11.25ZM14.25 4V20H15.75V4H14.25ZM17.25 9V15H18.75V9H17.25ZM20.25 11V13H21.75V11H20.25Z" fill="currentColor"/>
      </symbol>
    </defs>
    <defs>
      <symbol id='statistics'>
       <g><path fill="currentColor" d="M255,567.4v312.4h147V567.4l-73.5-61.3L255,567.4L255,567.4z M10,879.8h147V640.9L10,757.3V879.8L10,879.8z M745,493.9v385.9h147V371.4L745,493.9L745,493.9z M500,647v232.8h147V573.5l-116.4,98L500,647L500,647z M990,120.3H708.3l116.4,110.2l-300.1,245l-196-165.4L10,561.3v110.2l318.5-251.1l202.1,165.4l361.4-294l98,91.9L990,120.3L990,120.3z"/></g>
      </symbol>
    </defs>
    <defs>
      <symbol id='sprint'>
        <g><g transform="translate(0.000000,404.000000) scale(0.100000,-0.100000)">
        <path fill="currentColor" d="M7798.3,2860.8c-510.4-265-535-1020.9-39.3-1310.5c211-127.6,593.9-122.7,770.6,4.9c328.8,245.4,436.8,628.3,270,976.7C8632.7,2885.3,8151.7,3042.4,7798.3,2860.8z"/>
        <path fill="currentColor" d="M5000.6,2306.1c-495.7-88.3-966.9-324-1585.4-795.2c-211.1-162-539.9-387.8-736.2-500.6c-196.3-112.9-353.4-240.5-353.4-274.9c0-108,299.4-142.3,633.2-73.6c171.8,34.4,535,176.7,805,314.1c692.1,348.5,1158.4,495.7,1551,495.7c176.7,0,323.9-19.6,323.9-39.3c0-49.1-245.4-279.8-520.3-490.8c-112.9-83.5-431.9-274.9-711.7-427C3626.3,97.4,3493.7-69.5,3155.1-1046.2C2703.5-2342,2202.9-2994.9,882.5-4020.7C175.8-4575.3,67.8-4678.3,107-4786.4c44.2-107.9,230.7-93.2,662.6,54c824.6,274.9,1698.3,824.6,2311.8,1457.8c402.5,412.3,692.1,824.6,991.5,1423.4c230.7,456.5,245.4,476.1,377.9,446.6c888.4-216,1374.3-382.8,1418.5-500.6c19.7-39.3-19.7-166.9-78.5-279.8c-103.1-196.3-260.2-407.3-1320.3-1806.2c-368.1-485.9-485.9-721.6-348.5-721.6c108,0,579.2,260.2,908,505.6c510.4,373,1438.1,1330.1,1649.2,1698.3c191.4,333.8,265.1,638.1,211,878.6c-73.6,343.6-692.1,819.7-1286,996.4c-117.8,34.3-211,73.6-211,88.3c0,14.7,147.3,112.9,319,216c176.7,103.1,461.4,294.5,643,427c176.7,137.4,333.8,245.4,353.4,245.4c19.6,0,83.4-108,147.2-240.5c122.7-270,333.8-505.6,569.4-633.2c245.4-132.5,1035.6-117.8,1477.4,34.3c417.2,142.3,868.8,363.2,952.2,466.3c132.5,162,19.6,181.6-976.8,166.9C7690.3,117,7734.5,97.4,7528.3,823.8c-73.6,260.2-171.8,554.7-220.9,647.9c-206.2,402.5-697,692.1-1364.5,814.8C5525.8,2360.1,5329.4,2365,5000.6,2306.1z"/></g></g>
      </symbol>
    </defs>
    <defs>
      <symbol id='mess'>
         <g><g transform="translate(0.000000,511.000000) scale(0.100000,-0.100000)"><path fill="currentColor" d="M9317.6,4987.2c-395.6-36.1-554.3-58.2-817.3-108.4c-486-94.4-1094.5-289.2-1431.8-459.9c-998.1-502.1-1933.9-1237.1-2695-2112.6c-122.5-140.6-228.9-257-235-257c-6,0-84.4,24.1-172.7,52.2c-321.3,102.4-737,86.3-1126.6-42.2C1987.7,1776.1,1160.3,1037.1,531.8,0.9C377.1-252.1,100-818.5,100-878.7c0-62.2,104.4-164.7,166.7-164.7c30.1,0,158.7,80.3,335.4,208.9c807.3,586.4,1411.8,809.3,1757.2,646.6c90.4-42.2,293.2-226.9,291.2-267.1c-2-8-14.1-38.1-30.1-66.3c-16.1-28.1-28.1-78.3-30.1-112.5c0-54.2,88.4-148.6,793.2-853.5c435.8-435.8,815.3-799.3,841.4-809.3c36.2-14.1,74.3-10,136.6,14l84.3,34.1l72.3-56.2c38.2-32.1,98.4-94.4,134.6-140.6c255-333.4,22.1-1028.2-646.6-1931.9c-124.5-166.7-138.6-194.8-132.5-267.1c4-54.2,94.4-134.6,152.6-134.6c116.5,0,801.3,361.5,1204.9,638.6c578.4,393.6,1122.6,939.8,1413.8,1415.8c375.5,614.5,504,1235,361.5,1743.1c-24.1,82.3-44.2,166.7-44.2,188.8c-4,30.1,60.2,96.4,216.9,230.9C7805.5-27.2,8341.6,569.2,8773.4,1205.8c417.7,616.5,650.6,1090.4,837.4,1702.9c174.7,572.3,289.2,1301.3,289.2,1829.5c0,142.6-4,162.7-52.2,210.9c-52.2,50.2-62.3,52.2-257.1,48.2C9480.3,4997.3,9355.8,4991.2,9317.6,4987.2z M9558.6,4605.7c0-106.4-40.2-518.1-70.3-714.9c-52.2-343.4-190.8-905.7-291.2-1166.8l-22.1-58.2L8381.8,3461c-435.8,437.8-793.2,801.3-791.2,811.3c2,22.1,287.2,116.5,598.4,196.8c383.6,98.4,929.8,178.7,1265.2,188.8C9554.6,4659.9,9558.6,4657.9,9558.6,4605.7z M8156.9,3240.1l897.7-895.6l-72.3-140.6l-70.3-140.6L7946,3025.2c-532.2,528.1-963.9,967.9-957.9,976c14.1,20.1,226.9,136.6,251,136.6C7249.2,4137.8,7662.9,3734.1,8156.9,3240.1z M7458,3059.4c421.7-415.7,885.6-873.6,1032.2-1020.2l267.1-263.1l-134.5-208.9c-714.9-1128.6-1883.7-2211-3201.1-2966.1c-239-136.6-835.4-437.8-1010.1-508.1l-116.5-48.2l-670.7,670.7c-369.5,369.5-672.7,682.8-672.7,696.8c0,48.2,277.1,626.6,441.8,923.8c805.3,1445.9,1863.6,2596.6,3112.7,3383.8c82.3,52.2,158.7,96.4,168.7,96.4S7036.3,3475.1,7458,3059.4z M3720.8,1784.2c174.7-40.2,176.7-40.2,146.6-82.3c-18.1-24.1-152.6-228.9-299.2-455.9C3277,802.1,3098.2,486.9,2909.5,91.3l-120.5-253l-80.3,66.3c-247,202.8-399.6,263.1-660.7,263.1c-154.6,0-222.9-10-361.5-56.2c-237-76.3-578.4-251-883.6-449.8c-46.2-30.1-46.2-26.1,20.1,88.3c36.1,66.3,140.6,233,230.9,371.5c576.4,881.6,1200.9,1421.8,1905.8,1646.7C3222.7,1854.4,3399.5,1856.5,3720.8,1784.2z M6694.9-1475.1c2-337.4-36.2-510.1-186.8-823.4c-168.7-351.4-349.4-596.4-666.7-903.7c-297.2-287.2-785.2-644.6-1192.9-873.6l-120.5-68.3l38.1,58.2c267.1,405.7,451.8,819.3,496,1096.5c40.2,263.1-40.2,528.2-230.9,761.1l-92.4,108.4l347.4,172.7c391.6,194.8,984,546.2,1323.4,783.2l226.9,158.7l28.1-94.4C6680.9-1157.9,6692.9-1300.4,6694.9-1475.1z"/>
         <path fill="currentColor" d="M6353.5,2252.1c-186.8-48.2-391.6-210.9-469.9-375.5c-200.8-413.7,20.1-889.6,465.9-1004.1c323.3-82.3,668.7,88.4,811.3,401.6c80.3,174.7,80.3,391.6,0,568.3c-68.3,148.6-226.9,309.3-367.5,369.5C6688.9,2258.1,6455.9,2278.2,6353.5,2252.1z M6648.7,1926.7c86.4-30.1,194.8-130.5,230.9-212.9c64.3-148.6,10-357.5-114.5-453.8c-265.1-200.8-638.6-24.1-640.6,303.2C6124.6,1830.3,6387.7,2013.1,6648.7,1926.7z"/>
         <path fill="currentColor" d="M2290.9-987.2c-72.3-114.5-403.6-745-403.6-767.1c0-14.1,285.2-307.3,632.6-652.7l630.6-628.6l116.5,66.3c425.7,243,678.8,395.6,676.8,409.7c-4,18.1-1598.5,1616.6-1614.6,1616.6C2323.1-943,2305-963.1,2290.9-987.2z M2951.6-1995.3c269.1-271.1,486-496,482-500c-6-4-58.2-36.1-118.5-72.3l-108.4-66.3l-467.9,467.9l-467.9,465.9l60.2,118.5c50.2,98.4,64.3,114.5,94.4,98.4C2443.6-1493.2,2680.5-1724.2,2951.6-1995.3z"/>
         <path fill="currentColor" d="M1405.3-2720.2l-369.5-371.5l78.3-80.3l78.3-80.3l367.5,365.5c202.8,202.8,367.5,377.5,367.5,389.6c0,22.1-116.5,148.6-138.6,148.6C1782.9-2348.7,1610.2-2515.4,1405.3-2720.2z"/>
         <path fill="currentColor" d="M1489.7-3258.4l-606.5-608.5l76.3-74.3l74.3-74.3l612.5,612.5l610.5,612.5l-68.3,70.3c-38.2,38.2-72.3,70.3-80.3,70.3C2102.2-2649.9,1825-2923,1489.7-3258.4z"/>
         <path fill="currentColor" d="M1951.6-3399c-245-245-445.8-455.9-445.8-467.9c0-10,30.1-48.2,66.3-84.3l66.3-64.3l453.9,457.9l455.9,455.9l-44.2,50.2C2401.4-2937.1,2433.5-2917,1951.6-3399z"/>
         <path fill="currentColor" d="M806.9-3318.7c-36.2-36.1-64.3-74.3-64.3-86.3c0-12.1,30.1-48.2,66.3-84.3l66.3-64.3l72.3,76.3l74.3,74.3l-44.2,50.2C889.2-3250.4,875.2-3246.4,806.9-3318.7z"/>
         <path fill="currentColor" d="M656.3-4091.8l-74.3-76.3l76.3-74.3l76.3-74.3l74.3,76.3l74.3,76.3l-76.3,74.3l-76.3,74.3L656.3-4091.8z"/>
         <path fill="currentColor" d="M1268.8-4081.8c-36.2-36.1-64.3-74.3-64.3-86.3c0-12.1,30.1-48.2,66.3-84.3l66.3-64.3l72.3,76.3l74.3,74.3l-44.2,50.2C1347.1-4011.5,1337.1-4011.5,1268.8-4081.8z"/></g></g>
      </symbol>
    </defs>
     <defs>
      <symbol id='game'>
         <g><path fill="currentColor" d="M886.2,846.4c-64.2,0-100.8-38.4-143.2-82.8c-15-15.7-30.5-32-48.7-48.2c-47.5-42.4-95.2-48.2-139.8-48.2c-8,0-15.7,0.2-23.2,0.4c-7.2,0.2-14.1,0.3-20.7,0.3h-21.5c-6.6,0-13.5-0.2-20.7-0.3c-7.5-0.2-15.2-0.4-23.2-0.4c-44.5,0-92.3,5.8-139.8,48.2c-18.1,16.2-33.6,32.5-48.7,48.2c-42.4,44.4-79,82.8-143.2,82.8c-25,0-45.9-9.2-62.1-27.3C10.1,772.7,0,667.6,19.8,488.4C47.1,241.5,160,153.6,256.5,153.6c34.8,0,58.6,14.3,83.9,29.5c34.8,20.9,74.3,44.6,159.6,44.6c85.4,0,124.8-23.7,159.6-44.6c25.3-15.2,49.1-29.5,83.9-29.5c96.5,0,209.4,88,236.7,334.8c19.8,179.2,9.7,284.3-31.9,330.7C932.1,837.2,911.2,846.4,886.2,846.4z M554.6,635.6c48.4,0,105.3,6.7,160.8,56.2c19.1,17,35,33.8,50.5,49.9c40.4,42.4,69.6,73,120.3,73c15.8,0,28.5-5.5,38.6-16.8c34.2-38.2,42.2-141.2,24-306.1c-25-226.1-122.4-306.7-205.3-306.7c-26,0-44.4,11-67.6,25c-36.4,21.9-81.8,49.1-175.9,49.1c-94.1,0-139.5-27.2-175.9-49.1c-23.2-13.9-41.6-25-67.6-25c-82.8,0-180.3,80.6-205.3,306.7C33,656.8,41,759.8,75.2,798c10.1,11.3,22.8,16.8,38.6,16.8c50.6,0,79.9-30.6,120.3-73c15.4-16.2,31.4-32.9,50.5-49.9c65-58,131.9-57.1,184.8-55.8c6.9,0.2,13.6,0.3,19.9,0.3h21.5c6.4,0,13-0.2,19.9-0.3C538.3,635.8,546.3,635.6,554.6,635.6z"/>
          <path fill="currentColor" d="M793.7,356.3c0,26.2-21.2,47.4-47.4,47.4s-47.4-21.2-47.4-47.4c0-26.2,21.2-47.4,47.4-47.4C772.5,308.8,793.7,330.1,793.7,356.3z"/>
          <path fill="currentColor" d="M793.7,545.9c0,26.2-21.2,47.4-47.4,47.4s-47.4-21.2-47.4-47.4c0-26.2,21.2-47.4,47.4-47.4C772.5,498.5,793.7,519.7,793.7,545.9z"/>
          <path fill="currentColor" d="M841.1,498.5c-26.2,0-47.4-21.2-47.4-47.4c0-26.2,21.2-47.4,47.4-47.4c26.2,0,47.4,21.2,47.4,47.4C888.5,477.3,867.3,498.5,841.1,498.5z"/>
          <path fill="currentColor" d="M651.5,498.5c-26.2,0-47.4-21.2-47.4-47.4c0-26.2,21.2-47.4,47.4-47.4c26.2,0,47.4,21.2,47.4,47.4C698.9,477.3,677.6,498.5,651.5,498.5z"/>
          <path fill="currentColor" d="M377.5,419.5h-79v-79c0-17.5-14.2-31.6-31.6-31.6c-17.5,0-31.6,14.2-31.6,31.6v79h-79c-17.5,0-31.6,14.2-31.6,31.6c0,17.5,14.2,31.6,31.6,31.6h79v79c0,17.5,14.2,31.6,31.6,31.6c17.5,0,31.6-14.2,31.6-31.6v-79h79c17.5,0,31.6-14.2,31.6-31.6C409.1,433.6,395,419.5,377.5,419.5z"/></g>  
      </symbol>
    </defs>

    <defs>
      <symbol id='sound-active'>
        <path fill="currentColor" d="M7.58 4.08L6.15 2.65C3.75 4.48 2.17 7.3 2.03 10.5h2c.15-2.65 1.51-4.97 3.55-6.42zm12.39 6.42h2c-.15-3.2-1.73-6.02-4.12-7.85l-1.42 1.43c2.02 1.45 3.39 3.77 3.54 6.42zM18 11c0-3.07-1.64-5.64-4.5-6.32V4c0-.83-.67-1.5-1.5-1.5s-1.5.67-1.5 1.5v.68C7.63 5.36 6 7.92 6 11v5l-2 2v1h16v-1l-2-2v-5zm-6 11c.14 0 .27-.01.4-.04.65-.14 1.18-.58 1.44-1.18.1-.24.15-.5.15-.78h-4c.01 1.1.9 2 2.01 2z"></path>
      </symbol>
    </defs>

    <defs>
      <symbol id='sound-mute'>
        <path fill="currentColor" d="M20 18.69L7.84 6.14 5.27 3.49 4 4.76l2.8 2.8v.01c-.52.99-.8 2.16-.8 3.42v5l-2 2v1h13.73l2 2L21 19.72l-1-1.03zM12 22c1.11 0 2-.89 2-2h-4c0 1.11.89 2 2 2zm6-7.32V11c0-3.08-1.64-5.64-4.5-6.32V4c0-.83-.67-1.5-1.5-1.5s-1.5.67-1.5 1.5v.68c-.15.03-.29.08-.42.12-.1.03-.2.07-.3.11h-.01c-.01 0-.01 0-.02.01-.23.09-.46.2-.68.31 0 0-.01 0-.01.01L18 14.68z"></path>
      </symbol>
    </defs>
    <defs>
      <symbol id='auth'>
        <path fill="currentColor" d="M9 15L8.99998 15.75H9V15ZM15 15V15.75H15L15 15ZM3.75 12C3.75 7.44365 7.44365 3.75 12 3.75V2.25C6.61522 2.25 2.25 6.61522 2.25 12H3.75ZM12 3.75C16.5563 3.75 20.25 7.44365 20.25 12H21.75C21.75 6.61522 17.3848 2.25 12 2.25V3.75ZM12 20.25C7.44365 20.25 3.75 16.5563 3.75 12H2.25C2.25 17.3848 6.61522 21.75 12 21.75V20.25ZM20.25 12C20.25 16.5563 16.5563 20.25 12 20.25V21.75C17.3848 21.75 21.75 17.3848 21.75 12H20.25ZM14.25 9C14.25 10.2426 13.2426 11.25 12 11.25V12.75C14.0711 12.75 15.75 11.0711 15.75 9H14.25ZM12 11.25C10.7574 11.25 9.75 10.2426 9.75 9H8.25C8.25 11.0711 9.92893 12.75 12 12.75V11.25ZM9.75 9C9.75 7.75736 10.7574 6.75 12 6.75V5.25C9.92893 5.25 8.25 6.92893 8.25 9H9.75ZM12 6.75C13.2426 6.75 14.25 7.75736 14.25 9H15.75C15.75 6.92893 14.0711 5.25 12 5.25V6.75ZM9 15.75H15V14.25H9V15.75ZM15 15.75C15.6008 15.75 16.1482 16.0891 16.5769 16.6848C17.0089 17.2852 17.25 18.0598 17.25 18.7083H18.75C18.75 17.7371 18.4052 16.6575 17.7944 15.8086C17.1801 14.9551 16.2275 14.25 15 14.25L15 15.75ZM6.75 18.7083C6.75 18.0598 6.99109 17.2852 7.42315 16.6848C7.85183 16.0891 8.39919 15.75 8.99998 15.75L9.00002 14.25C7.77253 14.25 6.81989 14.9551 6.20564 15.8086C5.59477 16.6575 5.25 17.7371 5.25 18.7083H6.75Z"/>
      </symbol>
    </defs>
 
    
</svg>











  